<?xml version="1.0" encoding="UTF-8" standalone="no"?>
<!DOCTYPE svg PUBLIC "-//W3C//DTD SVG 1.1//EN" "http://www.w3.org/Graphics/SVG/1.1/DTD/svg11.dtd">
<svg version="1.1" xmlns="http://www.w3.org/2000/svg" xmlns:xlink="http://www.w3.org/1999/xlink" preserveAspectRatio="xMidYMid meet" viewBox="0 0 180 100" width="180" height="100"><defs><path d="M32.23 0.01L32.62 0.03L33.01 0.06L33.39 0.09L33.77 0.12L34.14 0.16L34.5 0.21L34.85 0.26L35.2 0.31L35.54 0.37L35.87 0.44L36.2 0.5L36.52 0.57L36.83 0.64L37.13 0.72L37.42 0.79L37.71 0.87L37.99 0.95L38.26 1.02L38.52 1.1L38.77 1.18L39.02 1.26L39.25 1.34L39.48 1.42L39.7 1.49L39.91 1.57L40.11 1.64L40.3 1.71L40.48 1.78L40.65 1.84L40.81 1.9L40.97 1.96L41.11 2.01L41.24 2.06L41.37 2.1L41.48 2.14L41.58 2.17L41.68 2.19L41.76 2.21L42.12 2.38L42.47 2.55L42.82 2.73L43.15 2.91L43.48 3.09L43.8 3.27L44.12 3.46L44.42 3.64L44.72 3.83L45.01 4.02L45.3 4.21L45.57 4.4L45.84 4.58L46.1 4.77L46.35 4.96L46.6 5.15L46.83 5.33L47.06 5.51L47.29 5.69L47.5 5.87L47.71 6.04L47.91 6.22L48.1 6.38L48.28 6.55L48.46 6.71L48.63 6.86L48.79 7.01L48.95 7.15L49.09 7.29L49.23 7.42L49.37 7.55L49.49 7.67L49.61 7.78L49.72 7.88L49.82 7.98L49.92 8.06L50.01 8.14L50.09 8.21L50.16 8.27L50.23 8.32L50.5 8.61L50.76 8.91L51.01 9.2L51.25 9.5L51.49 9.79L51.72 10.09L51.94 10.38L52.15 10.68L52.36 10.97L52.56 11.26L52.76 11.55L52.94 11.84L53.12 12.12L53.3 12.4L53.46 12.68L53.62 12.95L53.78 13.22L53.93 13.49L54.07 13.75L54.21 14L54.34 14.25L54.47 14.5L54.59 14.73L54.7 14.96L54.81 15.19L54.91 15.4L55.01 15.61L55.11 15.81L55.2 16L55.28 16.19L55.36 16.36L55.44 16.52L55.51 16.68L55.58 16.82L55.64 16.96L55.7 17.08L55.76 17.19L55.81 17.29L55.86 17.37L55.9 17.45L56 17.71L56.1 17.97L56.2 18.24L56.29 18.5L56.38 18.77L56.47 19.04L56.56 19.3L56.64 19.57L56.72 19.84L56.8 20.11L56.88 20.38L56.95 20.65L57.02 20.92L57.09 21.2L57.15 21.47L57.22 21.74L57.28 22.02L57.33 22.3L57.39 22.57L57.44 22.85L57.49 23.13L57.54 23.41L57.58 23.69L57.63 23.97L57.67 24.26L57.7 24.54L57.74 24.82L57.77 25.11L57.8 25.39L57.83 25.68L57.85 25.97L57.87 26.26L57.89 26.54L57.91 26.83L57.92 27.12L57.94 27.42L57.94 27.71L57.95 28L57.95 28.3L57.96 28.59L57.96 71.41L55.9 82.55L55.74 82.94L55.58 83.32L55.42 83.69L55.26 84.05L55.09 84.41L54.92 84.75L54.75 85.09L54.58 85.42L54.4 85.74L54.23 86.06L54.05 86.36L53.88 86.66L53.7 86.95L53.53 87.23L53.35 87.5L53.18 87.76L53.01 88.02L52.84 88.26L52.67 88.5L52.51 88.73L52.35 88.96L52.19 89.17L52.03 89.38L51.88 89.58L51.73 89.77L51.59 89.95L51.45 90.13L51.32 90.29L51.19 90.45L51.07 90.6L50.95 90.75L50.84 90.88L50.74 91.01L50.64 91.13L50.55 91.24L50.47 91.34L50.4 91.44L50.33 91.53L50.28 91.61L50.23 91.68L49.96 91.97L49.69 92.24L49.41 92.52L49.14 92.78L48.86 93.03L48.59 93.28L48.32 93.52L48.04 93.75L47.77 93.97L47.5 94.19L47.23 94.4L46.97 94.6L46.7 94.79L46.44 94.98L46.19 95.16L45.93 95.33L45.68 95.5L45.44 95.66L45.19 95.81L44.96 95.96L44.73 96.1L44.5 96.24L44.28 96.37L44.07 96.49L43.86 96.61L43.66 96.72L43.47 96.83L43.28 96.93L43.1 97.03L42.93 97.12L42.77 97.21L42.62 97.29L42.48 97.37L42.34 97.44L42.22 97.51L42.1 97.57L42 97.63L41.91 97.69L41.83 97.74L41.76 97.79L41.52 97.89L41.27 98L41.03 98.1L40.78 98.21L40.53 98.3L40.29 98.4L40.04 98.49L39.79 98.58L39.54 98.67L39.29 98.75L39.04 98.84L38.79 98.91L38.53 98.99L38.28 99.06L38.03 99.13L37.77 99.2L37.52 99.27L37.26 99.33L37 99.39L36.74 99.45L36.49 99.5L36.23 99.55L35.97 99.6L35.7 99.65L35.44 99.69L35.18 99.73L34.92 99.77L34.65 99.8L34.39 99.83L34.12 99.86L33.85 99.89L33.59 99.91L33.32 99.93L33.05 99.95L32.78 99.97L32.51 99.98L32.24 99.99L31.96 99.99L31.69 100L31.42 100L0.77 100L0.77 96.11L6.87 96.11L6.87 3.89L0.77 3.89L0.77 0L31.42 0L31.83 0L32.23 0.01ZM23.69 96.11L30.3 96.11L30.63 96.1L30.95 96.09L31.27 96.06L31.58 96.02L31.88 95.97L32.18 95.92L32.46 95.86L32.74 95.78L33.01 95.71L33.28 95.62L33.54 95.53L33.78 95.43L34.03 95.33L34.26 95.22L34.49 95.11L34.71 95L34.92 94.88L35.13 94.77L35.33 94.65L35.52 94.52L35.71 94.4L35.89 94.28L36.06 94.16L36.22 94.04L36.38 93.92L36.53 93.8L36.68 93.69L36.81 93.57L36.94 93.47L37.07 93.36L37.19 93.27L37.3 93.17L37.4 93.08L37.5 93L37.59 92.93L37.68 92.86L37.76 92.81L37.83 92.76L37.9 92.72L37.96 92.68L38.12 92.51L38.27 92.34L38.42 92.16L38.56 91.99L38.7 91.81L38.84 91.63L38.97 91.44L39.1 91.26L39.23 91.07L39.35 90.89L39.47 90.7L39.58 90.5L39.69 90.31L39.79 90.12L39.89 89.92L39.99 89.72L40.09 89.52L40.17 89.32L40.26 89.11L40.34 88.91L40.42 88.7L40.49 88.49L40.56 88.28L40.63 88.07L40.69 87.86L40.75 87.64L40.8 87.42L40.85 87.2L40.9 86.98L40.94 86.76L40.98 86.53L41.01 86.31L41.04 86.08L41.06 85.85L41.09 85.62L41.1 85.38L41.12 85.15L41.13 84.91L41.13 84.67L41.14 84.43L41.14 15.57L40.26 11.07L40.2 10.92L40.13 10.77L40.06 10.62L39.99 10.47L39.92 10.33L39.85 10.19L39.78 10.06L39.71 9.93L39.63 9.8L39.56 9.67L39.49 9.55L39.41 9.43L39.34 9.31L39.27 9.2L39.19 9.09L39.12 8.98L39.05 8.88L38.98 8.78L38.91 8.68L38.84 8.59L38.77 8.5L38.71 8.41L38.64 8.32L38.58 8.24L38.52 8.16L38.46 8.09L38.4 8.02L38.35 7.95L38.29 7.88L38.24 7.82L38.2 7.76L38.15 7.71L38.11 7.66L38.07 7.61L38.03 7.56L38 7.52L37.97 7.48L37.94 7.44L37.92 7.41L37.9 7.38L37.78 7.26L37.67 7.15L37.56 7.04L37.45 6.93L37.33 6.82L37.22 6.72L37.11 6.62L37 6.52L36.89 6.43L36.78 6.34L36.67 6.25L36.56 6.17L36.46 6.09L36.35 6.01L36.25 5.94L36.14 5.86L36.04 5.79L35.94 5.73L35.85 5.66L35.75 5.6L35.66 5.54L35.57 5.48L35.48 5.43L35.39 5.38L35.31 5.33L35.23 5.28L35.15 5.23L35.08 5.19L35.01 5.15L34.94 5.11L34.88 5.08L34.81 5.04L34.76 5.01L34.7 4.98L34.65 4.95L34.61 4.92L34.57 4.9L34.53 4.87L34.5 4.85L34.47 4.83L34.37 4.79L34.28 4.74L34.18 4.7L34.08 4.65L33.98 4.61L33.88 4.57L33.78 4.53L33.69 4.49L33.59 4.46L33.49 4.42L33.38 4.39L33.28 4.35L33.18 4.32L33.08 4.29L32.98 4.26L32.88 4.23L32.77 4.2L32.67 4.18L32.57 4.15L32.46 4.13L32.36 4.1L32.25 4.08L32.15 4.06L32.04 4.04L31.93 4.02L31.83 4.01L31.72 3.99L31.61 3.98L31.51 3.96L31.4 3.95L31.29 3.94L31.18 3.93L31.07 3.92L30.96 3.91L30.85 3.91L30.74 3.9L30.63 3.9L30.52 3.89L30.41 3.89L30.3 3.89L23.69 3.89L23.69 96.11ZM10.49 96.11L13.48 96.11L13.48 3.89L10.49 3.89L10.49 96.11ZM17.09 96.11L20.08 96.11L20.08 3.89L17.09 3.89L17.09 96.11ZM43.32 8.88L43.41 9.09L43.5 9.3L43.58 9.52L43.66 9.73L43.74 9.94L43.82 10.16L43.89 10.37L43.96 10.58L44.03 10.8L44.09 11.01L44.15 11.23L44.21 11.44L44.27 11.66L44.32 11.87L44.37 12.09L44.41 12.3L44.46 12.52L44.5 12.74L44.54 12.95L44.57 13.17L44.6 13.39L44.63 13.6L44.65 13.82L44.68 14.04L44.7 14.26L44.71 14.48L44.73 14.69L44.74 14.91L44.74 15.13L44.75 15.35L44.75 15.57L44.75 84.43L44.75 84.76L44.73 85.08L44.72 85.4L44.69 85.71L44.66 86.01L44.62 86.32L44.58 86.61L44.53 86.9L44.48 87.18L44.42 87.46L44.37 87.73L44.3 87.99L44.24 88.24L44.17 88.49L44.1 88.73L44.03 88.97L43.97 89.19L43.89 89.41L43.83 89.62L43.76 89.82L43.69 90.01L43.62 90.19L43.56 90.36L43.5 90.53L43.44 90.68L43.38 90.82L43.33 90.96L43.28 91.08L43.24 91.2L43.2 91.3L43.17 91.39L43.15 91.47L43.13 91.54L43.33 91.41L43.52 91.27L43.71 91.12L43.88 90.98L44.05 90.83L44.21 90.68L44.37 90.53L44.52 90.38L44.66 90.22L44.79 90.07L44.92 89.92L45.05 89.76L45.16 89.61L45.27 89.46L45.38 89.31L45.48 89.17L45.57 89.03L45.66 88.89L45.75 88.75L45.83 88.62L45.9 88.49L45.97 88.36L46.04 88.25L46.1 88.13L46.16 88.03L46.21 87.93L46.26 87.84L46.31 87.75L46.35 87.67L46.39 87.6L46.43 87.54L46.46 87.49L46.49 87.45L46.56 87.29L46.63 87.13L46.69 86.97L46.75 86.81L46.81 86.65L46.86 86.49L46.92 86.33L46.97 86.17L47.02 86.01L47.07 85.84L47.12 85.68L47.16 85.52L47.2 85.36L47.24 85.19L47.28 85.03L47.32 84.86L47.35 84.7L47.38 84.53L47.41 84.37L47.44 84.2L47.47 84.04L47.49 83.87L47.51 83.7L47.53 83.54L47.55 83.37L47.56 83.2L47.58 83.03L47.59 82.86L47.6 82.69L47.61 82.52L47.61 82.35L47.61 82.18L47.61 82.01L47.61 17.99L46.43 12.62L46.32 12.39L46.21 12.17L46.09 11.96L45.98 11.75L45.86 11.55L45.74 11.36L45.62 11.17L45.49 10.99L45.37 10.82L45.25 10.66L45.12 10.5L45 10.35L44.88 10.2L44.76 10.06L44.64 9.93L44.52 9.8L44.4 9.68L44.29 9.56L44.18 9.45L44.07 9.35L43.97 9.25L43.87 9.15L43.77 9.07L43.68 8.98L43.6 8.9L43.52 8.83L43.44 8.76L43.37 8.7L43.31 8.64L43.25 8.59L43.21 8.54L43.16 8.5L43.13 8.46L43.23 8.67L43.32 8.88ZM51.4 83.45L51.57 83.14L51.73 82.83L51.88 82.53L52.02 82.23L52.15 81.94L52.28 81.65L52.4 81.37L52.51 81.09L52.61 80.82L52.71 80.56L52.8 80.3L52.89 80.06L52.97 79.82L53.04 79.59L53.11 79.38L53.18 79.17L53.24 78.97L53.29 78.79L53.34 78.62L53.39 78.46L53.43 78.31L53.47 78.17L53.51 78.05L53.54 77.95L53.57 77.86L53.6 77.79L53.65 77.55L53.7 77.32L53.75 77.08L53.8 76.85L53.85 76.61L53.89 76.38L53.93 76.15L53.97 75.91L54.01 75.67L54.05 75.44L54.08 75.2L54.11 74.97L54.14 74.73L54.17 74.5L54.2 74.26L54.22 74.02L54.24 73.79L54.26 73.55L54.28 73.31L54.29 73.08L54.31 72.84L54.32 72.6L54.33 72.36L54.33 72.12L54.34 71.89L54.34 71.65L54.34 71.41L54.34 28.59L53.6 22.21L53.54 21.98L53.48 21.75L53.42 21.52L53.35 21.29L53.29 21.06L53.22 20.83L53.15 20.6L53.08 20.37L53 20.15L52.92 19.92L52.84 19.7L52.76 19.48L52.67 19.26L52.59 19.03L52.5 18.81L52.4 18.59L52.31 18.38L52.21 18.16L52.11 17.94L52.01 17.73L51.9 17.51L51.8 17.3L51.69 17.08L51.58 16.87L51.46 16.66L51.35 16.45L51.23 16.24L51.23 83.76L51.4 83.45Z" id="b8A1Hzo76"></path><path d="M174.17 34.63L174.17 34.4L174.17 34.17L174.17 33.95L174.17 33.72L174.17 33.5L174.17 33.28L174.16 33.07L174.16 32.86L174.16 32.65L174.15 32.44L174.15 32.24L174.15 32.04L174.14 31.84L174.14 31.65L174.14 31.46L174.13 31.28L174.13 31.1L174.12 30.92L174.12 30.75L174.11 30.59L174.11 30.42L174.1 30.27L174.1 30.11L174.1 29.97L174.09 29.82L174.09 29.69L174.08 29.56L174.08 29.43L174.07 29.31L174.07 29.19L174.06 28.98L174.06 28.88L174.06 28.79L174.05 28.71L174.05 28.63L174.05 28.56L174.05 28.5L174.05 28.44L174.05 28.39L174.04 28.15L174.02 27.92L174.01 27.69L174 27.46L173.99 27.24L173.98 27.02L173.96 26.8L173.95 26.59L173.93 26.38L173.92 26.17L173.9 25.97L173.89 25.77L173.87 25.57L173.86 25.38L173.84 25.19L173.82 25.01L173.81 24.83L173.79 24.66L173.78 24.49L173.76 24.32L173.74 24.16L173.73 24L173.71 23.85L173.7 23.71L173.68 23.57L173.67 23.43L173.66 23.3L173.64 23.17L173.63 23.06L173.62 22.94L173.61 22.84L173.59 22.73L173.58 22.64L173.57 22.55L173.57 22.47L173.56 22.39L173.55 22.32L173.54 22.25L173.54 22.2L173.53 22.15L173.49 21.88L173.45 21.61L173.4 21.35L173.36 21.09L173.31 20.84L173.25 20.59L173.2 20.34L173.14 20.1L173.08 19.86L173.02 19.63L172.96 19.4L172.89 19.17L172.83 18.95L172.76 18.74L172.7 18.53L172.63 18.33L172.57 18.13L172.5 17.93L172.43 17.74L172.37 17.56L172.3 17.38L172.24 17.21L172.17 17.04L172.11 16.88L172.05 16.73L171.99 16.58L171.93 16.44L171.88 16.3L171.82 16.17L171.77 16.04L171.72 15.93L171.68 15.81L171.63 15.71L171.59 15.61L171.56 15.52L171.52 15.43L171.49 15.36L171.47 15.29L171.44 15.22L171.43 15.17L171.3 14.92L171.18 14.68L171.06 14.44L170.94 14.2L170.81 13.98L170.68 13.76L170.56 13.54L170.43 13.33L170.31 13.12L170.18 12.92L170.05 12.73L169.93 12.54L169.8 12.35L169.68 12.17L169.56 12L169.43 11.83L169.31 11.67L169.2 11.51L169.08 11.36L168.96 11.21L168.85 11.07L168.74 10.93L168.63 10.8L168.53 10.67L168.43 10.55L168.33 10.43L168.24 10.32L168.14 10.21L168.06 10.11L167.97 10.02L167.89 9.92L167.82 9.84L167.75 9.76L167.68 9.68L167.62 9.61L167.57 9.54L167.52 9.48L167.47 9.43L167.43 9.38L167.4 9.33L167.22 9.15L167.03 8.97L166.85 8.79L166.67 8.63L166.48 8.46L166.3 8.3L166.12 8.15L165.94 8L165.76 7.86L165.58 7.72L165.4 7.58L165.22 7.45L165.05 7.33L164.87 7.21L164.7 7.09L164.53 6.98L164.37 6.87L164.2 6.76L164.05 6.66L163.89 6.57L163.74 6.47L163.59 6.39L163.44 6.3L163.3 6.22L163.16 6.14L163.03 6.07L162.9 6L162.78 5.93L162.66 5.87L162.55 5.81L162.44 5.75L162.34 5.69L162.25 5.64L162.16 5.6L162.08 5.55L162.01 5.51L161.94 5.47L161.88 5.43L161.82 5.4L161.78 5.37L161.54 5.26L161.3 5.16L161.06 5.06L160.83 4.97L160.6 4.89L160.37 4.81L160.14 4.73L159.91 4.66L159.69 4.6L159.47 4.54L159.25 4.48L159.03 4.43L158.82 4.38L158.61 4.33L158.41 4.29L158.21 4.25L158.01 4.22L157.82 4.19L157.63 4.16L157.45 4.13L157.27 4.11L157.09 4.09L156.92 4.07L156.76 4.05L156.6 4.04L156.45 4.02L156.3 4.01L156.16 4L156.03 3.99L155.9 3.98L155.78 3.97L155.66 3.96L155.55 3.95L155.45 3.95L155.36 3.94L155.27 3.93L155.19 3.92L155.12 3.91L155.06 3.9L155 3.89L154.66 3.9L154.33 3.91L154 3.94L153.69 3.98L153.38 4.03L153.08 4.08L152.78 4.14L152.5 4.22L152.22 4.29L151.95 4.38L151.68 4.47L151.43 4.57L151.18 4.67L150.94 4.78L150.7 4.89L150.48 5L150.26 5.12L150.05 5.23L149.84 5.35L149.64 5.48L149.45 5.6L149.27 5.72L149.09 5.84L148.93 5.96L148.76 6.08L148.61 6.2L148.46 6.31L148.32 6.43L148.18 6.53L148.06 6.64L147.94 6.73L147.82 6.83L147.71 6.92L147.61 7L147.52 7.07L147.43 7.14L147.35 7.19L147.27 7.24L147.21 7.28L147.14 7.32L146.98 7.49L146.83 7.66L146.67 7.84L146.53 8.01L146.38 8.19L146.24 8.37L146.1 8.56L145.97 8.74L145.84 8.93L145.72 9.11L145.6 9.3L145.48 9.5L145.37 9.69L145.26 9.88L145.16 10.08L145.06 10.28L144.96 10.48L144.87 10.68L144.78 10.89L144.7 11.09L144.62 11.3L144.55 11.51L144.47 11.72L144.41 11.93L144.34 12.14L144.28 12.36L144.23 12.58L144.18 12.8L144.13 13.02L144.09 13.24L144.05 13.47L144.02 13.69L143.99 13.92L143.96 14.15L143.94 14.38L143.92 14.62L143.9 14.85L143.89 15.09L143.89 15.33L143.89 15.57L143.89 84.43L143.89 84.79L143.91 85.14L143.93 85.48L143.97 85.81L144.01 86.14L144.06 86.45L144.13 86.76L144.19 87.06L144.27 87.36L144.35 87.64L144.44 87.92L144.53 88.19L144.62 88.45L144.73 88.7L144.83 88.95L144.94 89.19L145.05 89.42L145.16 89.64L145.28 89.85L145.39 90.06L145.51 90.26L145.63 90.45L145.74 90.64L145.86 90.81L145.97 90.98L146.08 91.15L146.19 91.3L146.3 91.45L146.4 91.59L146.5 91.73L146.59 91.85L146.68 91.97L146.76 92.09L146.84 92.19L146.91 92.29L146.97 92.38L147.03 92.47L147.08 92.55L147.12 92.62L147.14 92.68L147.39 92.93L147.64 93.17L147.89 93.39L148.14 93.6L148.39 93.8L148.64 93.99L148.89 94.16L149.14 94.32L149.39 94.47L149.64 94.62L149.88 94.75L150.13 94.87L150.37 94.98L150.62 95.09L150.86 95.18L151.09 95.27L151.33 95.35L151.55 95.42L151.78 95.49L152 95.55L152.22 95.61L152.43 95.66L152.64 95.7L152.84 95.74L153.03 95.78L153.22 95.81L153.4 95.84L153.58 95.86L153.74 95.89L153.9 95.91L154.05 95.93L154.2 95.95L154.33 95.97L154.46 95.98L154.57 96L154.68 96.02L154.78 96.04L154.86 96.06L154.94 96.08L155 96.11L155.35 96.1L155.7 96.09L156.04 96.08L156.36 96.05L156.69 96.02L157 95.99L157.31 95.95L157.61 95.9L157.9 95.86L158.19 95.8L158.47 95.74L158.74 95.68L159 95.62L159.26 95.55L159.51 95.48L159.75 95.41L159.99 95.34L160.21 95.27L160.44 95.19L160.65 95.11L160.85 95.04L161.05 94.96L161.24 94.88L161.43 94.81L161.6 94.73L161.77 94.66L161.94 94.59L162.09 94.52L162.24 94.45L162.38 94.39L162.51 94.32L162.64 94.27L162.75 94.21L162.86 94.16L162.97 94.11L163.06 94.07L163.15 94.04L163.23 94L163.31 93.98L163.37 93.96L163.64 93.8L163.91 93.63L164.16 93.46L164.41 93.29L164.65 93.12L164.89 92.95L165.12 92.77L165.34 92.6L165.56 92.42L165.76 92.24L165.97 92.07L166.16 91.89L166.35 91.71L166.54 91.54L166.72 91.36L166.89 91.19L167.05 91.02L167.22 90.85L167.37 90.68L167.52 90.52L167.66 90.35L167.8 90.2L167.93 90.04L168.06 89.89L168.18 89.74L168.29 89.6L168.4 89.47L168.51 89.33L168.61 89.21L168.7 89.09L168.79 88.97L168.87 88.86L168.95 88.76L169.03 88.66L169.1 88.58L169.16 88.5L169.23 88.42L169.28 88.36L169.33 88.3L169.38 88.26L169.56 87.99L169.72 87.72L169.89 87.45L170.05 87.19L170.2 86.92L170.35 86.66L170.49 86.4L170.63 86.14L170.76 85.88L170.89 85.62L171.01 85.36L171.13 85.11L171.24 84.86L171.35 84.62L171.46 84.38L171.56 84.14L171.66 83.9L171.75 83.67L171.84 83.45L171.92 83.23L172 83.01L172.08 82.8L172.15 82.6L172.23 82.4L172.29 82.21L172.36 82.02L172.42 81.84L172.47 81.67L172.53 81.51L172.58 81.35L172.63 81.2L172.68 81.06L172.72 80.93L172.76 80.81L172.8 80.7L172.84 80.59L172.87 80.49L172.9 80.41L172.93 80.33L172.96 80.27L173.02 80.05L173.08 79.83L173.13 79.6L173.19 79.38L173.24 79.16L173.3 78.94L173.35 78.72L173.4 78.5L173.44 78.28L173.49 78.05L173.53 77.83L173.58 77.61L173.62 77.39L173.66 77.17L173.7 76.95L173.74 76.72L173.77 76.5L173.81 76.28L173.84 76.06L173.87 75.84L173.9 75.62L173.93 75.4L173.95 75.17L173.98 74.95L174 74.73L174.02 74.51L174.04 74.29L174.06 74.07L174.08 73.85L174.1 73.62L174.11 73.4L174.12 73.18L174.14 72.96L174.15 72.74L174.15 72.52L174.16 72.3L174.17 72.07L174.17 71.85L174.17 71.63L174.17 71.41L177.88 71.41L176.41 81.88L176.3 82.26L176.18 82.63L176.06 82.99L175.94 83.35L175.82 83.7L175.69 84.04L175.56 84.37L175.43 84.7L175.3 85.02L175.17 85.33L175.04 85.63L174.9 85.93L174.77 86.22L174.64 86.5L174.5 86.77L174.37 87.03L174.24 87.29L174.11 87.54L173.98 87.78L173.85 88.01L173.72 88.24L173.6 88.46L173.48 88.67L173.36 88.87L173.24 89.06L173.13 89.25L173.02 89.43L172.92 89.6L172.82 89.76L172.72 89.91L172.63 90.06L172.54 90.2L172.46 90.33L172.39 90.45L172.32 90.56L172.25 90.67L172.19 90.76L172.14 90.85L172.1 90.93L172.06 91.01L171.85 91.3L171.63 91.59L171.41 91.88L171.18 92.15L170.96 92.42L170.74 92.67L170.51 92.92L170.28 93.17L170.06 93.4L169.83 93.63L169.61 93.85L169.39 94.07L169.16 94.27L168.94 94.47L168.72 94.66L168.51 94.85L168.3 95.03L168.09 95.2L167.88 95.37L167.68 95.53L167.48 95.68L167.28 95.83L167.09 95.97L166.91 96.1L166.73 96.23L166.55 96.36L166.39 96.47L166.23 96.58L166.07 96.69L165.92 96.79L165.78 96.89L165.65 96.98L165.53 97.06L165.41 97.14L165.3 97.22L165.2 97.29L165.12 97.35L165.04 97.41L164.97 97.47L164.91 97.52L164.59 97.7L164.26 97.87L163.94 98.03L163.62 98.18L163.29 98.33L162.97 98.46L162.65 98.59L162.33 98.7L162.01 98.81L161.69 98.92L161.38 99.01L161.07 99.1L160.76 99.18L160.45 99.26L160.15 99.33L159.86 99.39L159.57 99.45L159.28 99.5L159 99.55L158.72 99.6L158.45 99.64L158.19 99.67L157.93 99.7L157.68 99.73L157.44 99.76L157.21 99.78L156.99 99.8L156.77 99.82L156.56 99.84L156.37 99.86L156.18 99.87L156 99.88L155.84 99.9L155.68 99.91L155.54 99.92L155.41 99.94L155.29 99.95L155.18 99.97L155.08 99.98L155 100L154.57 100L154.14 99.99L153.71 99.97L153.3 99.95L152.89 99.92L152.48 99.89L152.09 99.85L151.7 99.8L151.32 99.76L150.95 99.7L150.59 99.65L150.23 99.59L149.88 99.53L149.55 99.46L149.21 99.4L148.89 99.33L148.58 99.26L148.27 99.18L147.97 99.11L147.69 99.04L147.41 98.96L147.14 98.89L146.88 98.82L146.63 98.74L146.38 98.67L146.15 98.6L145.93 98.53L145.71 98.46L145.51 98.4L145.32 98.33L145.13 98.27L144.96 98.22L144.8 98.16L144.64 98.11L144.5 98.07L144.37 98.03L144.25 97.99L144.14 97.96L144.04 97.94L143.95 97.92L143.57 97.76L143.19 97.6L142.82 97.43L142.46 97.26L142.11 97.09L141.77 96.92L141.44 96.74L141.11 96.56L140.79 96.38L140.48 96.2L140.18 96.02L139.89 95.84L139.61 95.66L139.33 95.47L139.06 95.29L138.8 95.11L138.55 94.93L138.31 94.76L138.07 94.58L137.84 94.41L137.62 94.24L137.41 94.07L137.21 93.91L137.01 93.75L136.82 93.59L136.64 93.44L136.47 93.3L136.31 93.16L136.15 93.02L136 92.89L135.86 92.77L135.73 92.65L135.6 92.55L135.48 92.44L135.37 92.35L135.27 92.27L135.18 92.19L135.09 92.12L135.01 92.06L134.94 92.01L134.66 91.73L134.38 91.44L134.11 91.15L133.85 90.85L133.6 90.56L133.36 90.27L133.12 89.98L132.89 89.69L132.67 89.4L132.46 89.11L132.25 88.82L132.05 88.54L131.86 88.26L131.67 87.98L131.49 87.7L131.32 87.43L131.16 87.16L131 86.9L130.84 86.64L130.69 86.39L130.55 86.14L130.42 85.9L130.29 85.66L130.16 85.43L130.05 85.21L129.93 84.99L129.83 84.79L129.72 84.59L129.63 84.4L129.54 84.21L129.45 84.04L129.37 83.88L129.29 83.72L129.22 83.58L129.15 83.45L129.08 83.32L129.02 83.21L128.97 83.11L128.92 83.03L128.87 82.95L128.76 82.69L128.65 82.43L128.55 82.16L128.44 81.9L128.35 81.63L128.25 81.36L128.16 81.09L128.06 80.82L127.98 80.54L127.89 80.27L127.81 79.99L127.73 79.72L127.65 79.44L127.58 79.16L127.51 78.88L127.44 78.59L127.37 78.31L127.31 78.02L127.25 77.74L127.19 77.45L127.14 77.16L127.09 76.87L127.04 76.58L126.99 76.28L126.95 75.99L126.91 75.69L126.87 75.4L126.83 75.1L126.8 74.8L126.77 74.5L126.75 74.19L126.72 73.89L126.7 73.58L126.68 73.28L126.67 72.97L126.66 72.66L126.65 72.35L126.64 72.04L126.63 71.72L126.63 71.41L126.63 28.59L126.64 28.11L126.65 27.64L126.67 27.18L126.69 26.73L126.72 26.29L126.76 25.85L126.8 25.43L126.84 25.01L126.9 24.61L126.95 24.21L127.01 23.83L127.07 23.45L127.14 23.08L127.21 22.72L127.28 22.37L127.36 22.03L127.43 21.7L127.51 21.38L127.59 21.07L127.67 20.77L127.75 20.48L127.83 20.2L127.91 19.93L127.99 19.67L128.06 19.42L128.14 19.18L128.22 18.95L128.29 18.73L128.36 18.52L128.43 18.32L128.49 18.14L128.55 17.96L128.61 17.79L128.66 17.63L128.71 17.49L128.75 17.35L128.79 17.22L128.82 17.11L128.85 17.01L128.87 16.91L129.04 16.52L129.21 16.15L129.39 15.77L129.57 15.41L129.75 15.06L129.93 14.72L130.12 14.38L130.3 14.05L130.49 13.74L130.68 13.43L130.86 13.12L131.05 12.83L131.24 12.55L131.43 12.27L131.61 12L131.8 11.74L131.98 11.49L132.16 11.25L132.34 11.02L132.52 10.79L132.69 10.57L132.86 10.36L133.02 10.16L133.19 9.97L133.34 9.78L133.49 9.6L133.64 9.43L133.78 9.27L133.92 9.11L134.05 8.97L134.17 8.83L134.29 8.7L134.4 8.57L134.5 8.46L134.6 8.35L134.68 8.25L134.76 8.16L134.83 8.07L134.89 7.99L134.94 7.92L135.23 7.64L135.52 7.37L135.81 7.11L136.1 6.86L136.39 6.61L136.68 6.38L136.97 6.15L137.26 5.93L137.55 5.71L137.84 5.5L138.12 5.3L138.41 5.11L138.69 4.93L138.96 4.75L139.24 4.57L139.51 4.41L139.77 4.25L140.04 4.1L140.29 3.95L140.54 3.81L140.79 3.67L141.03 3.55L141.27 3.42L141.49 3.31L141.71 3.19L141.93 3.09L142.13 2.99L142.33 2.89L142.52 2.8L142.7 2.71L142.87 2.63L143.03 2.55L143.19 2.48L143.33 2.41L143.46 2.34L143.58 2.28L143.69 2.23L143.79 2.18L143.88 2.13L143.95 2.08L144.34 1.93L144.72 1.79L145.11 1.65L145.49 1.52L145.87 1.4L146.24 1.29L146.61 1.18L146.98 1.09L147.34 0.99L147.7 0.91L148.06 0.83L148.41 0.75L148.76 0.68L149.1 0.62L149.43 0.56L149.76 0.51L150.08 0.46L150.39 0.42L150.7 0.37L151 0.34L151.3 0.3L151.58 0.27L151.86 0.25L152.13 0.22L152.38 0.2L152.64 0.18L152.88 0.16L153.11 0.15L153.33 0.13L153.54 0.12L153.74 0.11L153.93 0.1L154.1 0.09L154.27 0.07L154.42 0.06L154.57 0.05L154.69 0.04L154.81 0.03L154.91 0.01L155 0L155.5 0.01L155.98 0.02L156.45 0.05L156.91 0.08L157.35 0.13L157.79 0.18L158.22 0.24L158.63 0.31L159.03 0.39L159.42 0.47L159.81 0.56L160.18 0.65L160.54 0.75L160.88 0.85L161.22 0.95L161.55 1.06L161.87 1.17L162.17 1.29L162.47 1.4L162.76 1.52L163.03 1.64L163.3 1.76L163.55 1.87L163.8 1.99L164.03 2.1L164.26 2.22L164.47 2.33L164.68 2.43L164.87 2.54L165.05 2.64L165.23 2.73L165.4 2.82L165.55 2.9L165.7 2.98L165.83 3.05L165.96 3.12L166.08 3.17L166.19 3.22L166.29 3.26L166.38 3.29L166.61 3.45L166.85 3.62L167.08 3.8L167.31 3.97L167.53 4.15L167.76 4.34L167.98 4.52L168.2 4.71L168.42 4.91L168.64 5.1L168.85 5.31L169.06 5.51L169.28 5.72L169.48 5.93L169.69 6.14L169.89 6.36L170.1 6.58L170.3 6.81L170.49 7.03L170.69 7.27L170.88 7.5L171.08 7.74L171.27 7.98L171.45 8.23L171.64 8.47L171.82 8.73L172 8.98L172.18 9.24L172.36 9.5L172.54 9.77L172.71 10.04L172.88 10.31L173.05 10.59L173.22 10.87L173.38 11.15L173.54 11.44L173.7 11.73L173.86 12.02L174.02 12.32L174.17 12.62L174.17 0L177.88 0L177.88 34.63L174.17 34.63ZM141.46 8.78L141.28 8.94L141.1 9.1L140.94 9.26L140.77 9.43L140.62 9.59L140.47 9.75L140.33 9.91L140.19 10.08L140.06 10.23L139.93 10.39L139.81 10.55L139.7 10.7L139.59 10.85L139.48 10.99L139.38 11.14L139.29 11.28L139.2 11.41L139.11 11.54L139.03 11.67L138.96 11.79L138.88 11.9L138.82 12.01L138.75 12.12L138.7 12.21L138.64 12.3L138.59 12.39L138.54 12.46L138.5 12.53L138.46 12.59L138.42 12.64L138.39 12.68L138.31 12.84L138.24 12.99L138.17 13.14L138.1 13.29L138.03 13.44L137.97 13.6L137.91 13.75L137.85 13.91L137.79 14.06L137.73 14.22L137.68 14.38L137.63 14.53L137.58 14.69L137.54 14.85L137.49 15.01L137.45 15.17L137.41 15.33L137.38 15.49L137.34 15.66L137.31 15.82L137.28 15.98L137.25 16.14L137.23 16.31L137.21 16.47L137.19 16.64L137.17 16.81L137.15 16.97L137.14 17.14L137.13 17.31L137.12 17.48L137.12 17.65L137.11 17.82L137.11 17.99L137.11 82.01L137.12 82.27L137.12 82.52L137.14 82.76L137.16 83L137.18 83.23L137.21 83.46L137.25 83.69L137.28 83.9L137.33 84.12L137.37 84.32L137.42 84.52L137.46 84.72L137.52 84.91L137.57 85.09L137.62 85.27L137.68 85.44L137.73 85.6L137.79 85.76L137.84 85.91L137.9 86.06L137.95 86.2L138 86.33L138.05 86.46L138.1 86.58L138.15 86.69L138.19 86.79L138.23 86.89L138.27 86.98L138.3 87.06L138.33 87.14L138.36 87.2L138.38 87.26L138.39 87.32L138.47 87.47L138.55 87.61L138.63 87.76L138.71 87.91L138.8 88.05L138.88 88.19L138.97 88.34L139.06 88.48L139.15 88.62L139.25 88.75L139.34 88.89L139.44 89.02L139.54 89.16L139.64 89.29L139.74 89.42L139.84 89.55L139.94 89.68L140.05 89.8L140.16 89.93L140.27 90.05L140.38 90.18L140.49 90.3L140.61 90.42L140.72 90.54L140.84 90.65L140.96 90.77L141.08 90.88L141.2 91L141.33 91.11L141.45 91.22L141.58 91.33L141.71 91.44L141.84 91.54L140.18 84.43L140.18 15.57L140.18 15.24L140.2 14.92L140.21 14.6L140.24 14.29L140.27 13.99L140.31 13.68L140.35 13.39L140.4 13.1L140.46 12.82L140.51 12.54L140.57 12.27L140.64 12.01L140.7 11.76L140.77 11.51L140.84 11.27L140.91 11.03L140.98 10.81L141.06 10.59L141.13 10.38L141.2 10.18L141.27 9.99L141.34 9.81L141.4 9.64L141.47 9.47L141.53 9.32L141.58 9.18L141.64 9.04L141.68 8.92L141.73 8.8L141.76 8.7L141.8 8.61L141.82 8.53L141.84 8.46L141.65 8.62L141.46 8.78ZM131.05 22.45L131 22.68L130.95 22.92L130.9 23.15L130.85 23.39L130.8 23.62L130.76 23.85L130.72 24.09L130.68 24.33L130.64 24.56L130.61 24.8L130.58 25.03L130.55 25.27L130.52 25.5L130.49 25.74L130.47 25.98L130.44 26.21L130.42 26.45L130.41 26.69L130.39 26.92L130.38 27.16L130.37 27.4L130.36 27.64L130.35 27.88L130.34 28.11L130.34 28.35L130.34 28.59L130.34 71.41L130.34 71.76L130.35 72.11L130.36 72.46L130.38 72.79L130.4 73.12L130.43 73.44L130.46 73.75L130.49 74.06L130.52 74.35L130.56 74.64L130.59 74.92L130.63 75.18L130.67 75.44L130.71 75.69L130.75 75.92L130.8 76.15L130.83 76.36L130.87 76.56L130.91 76.75L130.95 76.93L130.98 77.09L131.01 77.25L131.04 77.38L131.06 77.5L131.08 77.61L131.1 77.71L131.11 77.79L131.16 78.02L131.22 78.25L131.29 78.48L131.35 78.71L131.42 78.94L131.49 79.17L131.56 79.4L131.64 79.63L131.72 79.85L131.8 80.08L131.88 80.3L131.96 80.52L132.05 80.74L132.14 80.97L132.23 81.19L132.33 81.41L132.43 81.62L132.53 81.84L132.63 82.06L132.73 82.27L132.84 82.49L132.95 82.7L133.06 82.92L133.18 83.13L133.29 83.34L133.41 83.55L133.53 83.76L133.53 16.24L131.11 22.21L131.05 22.45Z" id="d5e7iK1Mwv"></path><path d="M95.16 3.89L95.16 96.11L114.17 96.11L114.17 77.05L118.62 77.05L118.62 100L66.95 100L66.95 96.11L74.46 96.11L74.46 3.89L66.95 3.89L66.95 0L103.75 0L103.75 3.89L95.16 3.89ZM87.03 96.11L90.71 96.11L90.71 3.89L87.03 3.89L87.03 96.11ZM78.91 96.11L82.59 96.11L82.59 3.89L78.91 3.89L78.91 96.11Z" id="agj3dtwgL"></path></defs><g><g><g></g><g><use xlink:href="#b8A1Hzo76" opacity="1" fill="#000000" fill-opacity="1"></use><g><use xlink:href="#b8A1Hzo76" opacity="1" fill-opacity="0" stroke="#000000" stroke-width="1" stroke-opacity="0"></use></g></g><g><use xlink:href="#d5e7iK1Mwv" opacity="1" fill="#000000" fill-opacity="1"></use><g><use xlink:href="#d5e7iK1Mwv" opacity="1" fill-opacity="0" stroke="#000000" stroke-width="1" stroke-opacity="0"></use></g></g><g><use xlink:href="#agj3dtwgL" opacity="1" fill="#000000" fill-opacity="1"></use><g><use xlink:href="#agj3dtwgL" opacity="1" fill-opacity="0" stroke="#000000" stroke-width="1" stroke-opacity="0"></use></g></g></g></g></svg>