<?xml version="1.0" encoding="UTF-8" standalone="no"?>
<!DOCTYPE svg PUBLIC "-//W3C//DTD SVG 1.1//EN" "http://www.w3.org/Graphics/SVG/1.1/DTD/svg11.dtd">
<svg version="1.1" xmlns="http://www.w3.org/2000/svg" xmlns:xlink="http://www.w3.org/1999/xlink" preserveAspectRatio="xMidYMid meet" viewBox="0 0 640 640" width="640" height="640"><defs><path d="M0 0L640 0L640 640L0 640L0 0Z" id="al0w9Qz8t"></path><path d="M137.21 434.45L229.83 375.9L427.38 434.45L287.08 529.18L0 640L137.21 434.45Z" id="c6aC2Nlt1"></path><path d="M285.74 530.16L230 455.57L0 640L285.74 530.16Z" id="b4vRdOlnJ5"></path><path d="M0 640L137.21 434.92L229.84 454.59L0 640Z" id="bE3tOcVNb"></path><path d="M137.21 434.92L229.02 375.9L229.84 454.59L137.21 434.92Z" id="c34hDar3Jl"></path><path d="M229.02 376.89L443.72 431.82L229.84 455.57L229.02 376.89Z" id="ka1uBSQcs"></path><path d="M202.79 67.4L340 5.57L485.9 35.43L397.24 158.85L282.76 158.85L202.79 67.4Z" id="b13x14Zimh"></path><path d="M192.95 281.8L137.21 207.21L79.84 281.8L192.95 281.8Z" id="b26K8Fd9mo"></path><path d="M79.84 281.8L0 190.82L137.21 207.21L79.84 281.8Z" id="a1lP3iMxjU"></path><path d="M0 190.82L136.39 128.52L139.67 210.48L0 190.82Z" id="c3PiT3HKW"></path><path d="M136.39 126.97L283.11 158.03L137.21 207.21L136.39 126.97Z" id="b4glIDcfuB"></path><path d="M214.59 0L340 0L508.85 52.65L397.24 158.85L282.76 158.85L214.59 0Z" id="d7b3iOuEW"></path><path d="M396.72 158.85L340.98 84.26L283.61 158.85L396.72 158.85Z" id="b2xbIKzCex"></path><path d="M283.61 158.85L215.57 0L340.98 84.26L283.61 158.85Z" id="a1xV6uUZWj"></path><path d="M214.59 0L339.18 0L340 84.26L214.59 0Z" id="b2Gm5A0Ov6"></path><path d="M337.54 0L508.85 53.11L340 84.26L337.54 0Z" id="c5ikVCV8d"></path><path d="M193.11 281.17L285.73 222.62L421.8 239.37L427.38 434.1L228.49 375.9L193.11 281.17Z" id="ac8xkfgaQ"></path><path d="M427.38 434.1L285.74 301.31L228.36 375.9L427.38 434.1Z" id="c2BC2yxSZZ"></path><path d="M228.36 375.9L193.11 281.64L285.74 301.31L228.36 375.9Z" id="b2UifTe8G0"></path><path d="M190.66 281.8L284.92 222.62L285.74 301.31L190.66 281.8Z" id="bvMS2xkwa"></path><path d="M284.92 222.62L419.34 239.02L285.74 301.31L284.92 222.62Z" id="b1xI4Xv8Dw"></path><path d="M396.56 159.2L565.41 0L640 155.1L546.42 253.93L285.74 222.62L396.56 159.2Z" id="a8rI2czEk"></path><path d="M545.74 253.93L490 179.34L283.11 222.62L545.74 253.93Z" id="a255oTEaLA"></path><path d="M285.74 222.62L396.56 159.67L489.18 179.34L285.74 222.62Z" id="a1QLqC0pQe"></path><path d="M396.56 159.67L508.85 52.3L489.18 179.34L396.56 159.67Z" id="d1Rnr4HBVJ"></path><path d="M508.85 52.3L640 155.57L489.18 179.34L508.85 52.3Z" id="cg4QcCyIA"></path><path d="M427.38 434.45L547.05 253.93L640 424.61L640 640L462.76 529.18L427.38 434.45Z" id="claFgGHHa"></path><path d="M640 640L520 454.59L462.62 529.18L640 640Z" id="a92aXYP6C"></path><path d="M462.62 529.18L427.38 434.92L520 454.59L462.62 529.18Z" id="keXs293oc"></path><path d="M420.84 434.92L547.05 253.93L520 454.59L420.84 434.92Z" id="brgUA4VEa"></path><path d="M547.05 253.93L640 425.9L520 454.59L547.05 253.93Z" id="cd6eaXqrO"></path><path d="M285.74 530.34L378.36 467.87L463.61 528.7L435.6 640L321.12 640L285.74 530.34Z" id="c1fMBZ5ORM"></path><path d="M433.11 640L377.38 556.24L320 640L433.11 640Z" id="a19DyrFxtq"></path><path d="M320.98 640L285.74 530.05L378.36 556.24L320.98 640Z" id="axUHADetP"></path><path d="M285.74 530.05L377.54 467.87L378.36 556.24L285.74 530.05Z" id="kn8NnVnq7"></path><path d="M378.36 467.87L463.61 527.59L379.18 556.24L378.36 467.87Z" id="d1j7mY8BYH"></path><path d="M0 340.35L80.65 281.8L193.11 281.8L137.13 435.08L0 455.57L0 340.35Z" id="a3H93FF9zI"></path><path d="M135.76 435.08L84.75 360.49L0 455.57L135.76 435.08Z" id="bp6Z267dS"></path><path d="M0 455.57L0 340.82L84.75 360.49L0 455.57Z" id="b48i5s5DP"></path><path d="M0 340.82L80.73 281.8L84.75 360.49L0 340.82Z" id="a3iTSsj5hj"></path><path d="M80.73 281.8L193.11 281.8L84.75 360.49L80.73 281.8Z" id="bqHNVIwr2"></path><path d="M0 39.53L79.34 0L214.59 0L136.59 128.52L0 109.67L0 39.53Z" id="bMvqcMimf"></path><path d="M136.72 128.52L80.98 53.93L0 108.85L136.72 128.52Z" id="aOX2OKFGl"></path><path d="M0 109.67L0 38.36L80.16 53.93L0 109.67Z" id="ahmRkDevS"></path><path d="M0 38.36L79.34 0L80.16 53.93L0 38.36Z" id="dpctOKWFH"></path><path d="M80.16 0L214.59 0L80.16 53.93L80.16 0Z" id="bJwDd9pT"></path></defs><g><g><g><g><use xlink:href="#al0w9Qz8t" opacity="1" fill="#d3d3d3" fill-opacity="0.77"></use></g><g><g><use xlink:href="#c6aC2Nlt1" opacity="1" fill="#e9f0f2" fill-opacity="1"></use></g><g><use xlink:href="#b4vRdOlnJ5" opacity="1" fill="#6c6c6c" fill-opacity="1"></use></g><g><use xlink:href="#bE3tOcVNb" opacity="1" fill="#dedede" fill-opacity="1"></use></g><g><use xlink:href="#c34hDar3Jl" opacity="1" fill="#e9f0f2" fill-opacity="1"></use></g><g><use xlink:href="#ka1uBSQcs" opacity="1" fill="#ababab" fill-opacity="1"></use></g></g><g><g><use xlink:href="#b13x14Zimh" opacity="1" fill="#6c6c6c" fill-opacity="1"></use></g><g><use xlink:href="#b26K8Fd9mo" opacity="1" fill="#ababab" fill-opacity="1"></use></g><g><use xlink:href="#a1lP3iMxjU" opacity="1" fill="#e9f0f2" fill-opacity="1"></use></g><g><use xlink:href="#c3PiT3HKW" opacity="1" fill="#e9f0f2" fill-opacity="1"></use></g><g><use xlink:href="#b4glIDcfuB" opacity="1" fill="#dedede" fill-opacity="1"></use></g></g><g><g><use xlink:href="#d7b3iOuEW" opacity="1" fill="#dedede" fill-opacity="1"></use></g><g><use xlink:href="#b2xbIKzCex" opacity="1" fill="#e9f0f2" fill-opacity="1"></use></g><g><use xlink:href="#a1xV6uUZWj" opacity="1" fill="#6c6c6c" fill-opacity="1"></use></g><g><use xlink:href="#b2Gm5A0Ov6" opacity="1" fill="#ababab" fill-opacity="1"></use></g><g><use xlink:href="#c5ikVCV8d" opacity="1" fill="#ababab" fill-opacity="1"></use></g></g><g><g><use xlink:href="#ac8xkfgaQ" opacity="1" fill="#6c6c6c" fill-opacity="1"></use></g><g><use xlink:href="#c2BC2yxSZZ" opacity="1" fill="#e9f0f2" fill-opacity="1"></use></g><g><use xlink:href="#b2UifTe8G0" opacity="1" fill="#6c6c6c" fill-opacity="1"></use></g><g><use xlink:href="#bvMS2xkwa" opacity="1" fill="#dedede" fill-opacity="1"></use></g><g><use xlink:href="#b1xI4Xv8Dw" opacity="1" fill="#6c6c6c" fill-opacity="1"></use></g></g><g><g><use xlink:href="#a8rI2czEk" opacity="1" fill="#ababab" fill-opacity="1"></use></g><g><use xlink:href="#a255oTEaLA" opacity="1" fill="#e9f0f2" fill-opacity="1"></use></g><g><use xlink:href="#a1QLqC0pQe" opacity="1" fill="#6c6c6c" fill-opacity="1"></use></g><g><use xlink:href="#d1Rnr4HBVJ" opacity="1" fill="#e9f0f2" fill-opacity="1"></use></g><g><use xlink:href="#cg4QcCyIA" opacity="1" fill="#6c6c6c" fill-opacity="1"></use></g></g><g><g><use xlink:href="#claFgGHHa" opacity="1" fill="#ababab" fill-opacity="1"></use></g><g><use xlink:href="#a92aXYP6C" opacity="1" fill="#e9f0f2" fill-opacity="1"></use></g><g><use xlink:href="#keXs293oc" opacity="1" fill="#6c6c6c" fill-opacity="1"></use></g><g><use xlink:href="#brgUA4VEa" opacity="1" fill="#dedede" fill-opacity="1"></use></g><g><use xlink:href="#cd6eaXqrO" opacity="1" fill="#e9f0f2" fill-opacity="1"></use></g></g><g><g><use xlink:href="#c1fMBZ5ORM" opacity="1" fill="#ababab" fill-opacity="1"></use></g><g><use xlink:href="#a19DyrFxtq" opacity="1" fill="#6c6c6c" fill-opacity="1"></use></g><g><use xlink:href="#axUHADetP" opacity="1" fill="#e9f0f2" fill-opacity="1"></use></g><g><use xlink:href="#kn8NnVnq7" opacity="1" fill="#ababab" fill-opacity="1"></use></g><g><use xlink:href="#d1j7mY8BYH" opacity="1" fill="#e9f0f2" fill-opacity="1"></use></g></g><g><g><use xlink:href="#a3H93FF9zI" opacity="1" fill="#6c6c6c" fill-opacity="1"></use></g><g><use xlink:href="#bp6Z267dS" opacity="1" fill="#e9f0f2" fill-opacity="1"></use></g><g><use xlink:href="#b48i5s5DP" opacity="1" fill="#ababab" fill-opacity="1"></use></g><g><use xlink:href="#a3iTSsj5hj" opacity="1" fill="#e9f0f2" fill-opacity="1"></use></g><g><use xlink:href="#bqHNVIwr2" opacity="1" fill="#6c6c6c" fill-opacity="1"></use></g></g><g><g><use xlink:href="#bMvqcMimf" opacity="1" fill="#dedede" fill-opacity="1"></use></g><g><use xlink:href="#aOX2OKFGl" opacity="1" fill="#e9f0f2" fill-opacity="1"></use></g><g><use xlink:href="#ahmRkDevS" opacity="1" fill="#6c6c6c" fill-opacity="1"></use></g><g><use xlink:href="#dpctOKWFH" opacity="1" fill="#e9f0f2" fill-opacity="1"></use></g><g><use xlink:href="#bJwDd9pT" opacity="1" fill="#ababab" fill-opacity="1"></use></g></g></g></g></g></svg>