<?xml version="1.0" encoding="UTF-8" standalone="no"?>
<!DOCTYPE svg PUBLIC "-//W3C//DTD SVG 1.1//EN" "http://www.w3.org/Graphics/SVG/1.1/DTD/svg11.dtd">
<svg version="1.1" xmlns="http://www.w3.org/2000/svg" xmlns:xlink="http://www.w3.org/1999/xlink" preserveAspectRatio="xMidYMid meet" viewBox="0 0 100 100" width="100" height="100"><defs><path d="M5.87 47.1L93.32 47.1L93.32 59.36L5.87 59.36L5.87 47.1Z" id="d82F9pASjG"></path><path d="M5.87 14.63L93.32 14.63L93.32 26.88L5.87 26.88L5.87 14.63Z" id="d19JgBem2q"></path><path d="M92.65 33.83L92.65 28.55L7.35 28.55L7.35 33.83L3.75 33.83L3.75 8.49L7.35 8.49L7.35 13.67L92.65 13.67L92.65 8.49L96.25 8.49L96.25 33.83L92.65 33.83ZM7.35 25.35L92.65 25.35L92.65 22.71L7.35 22.71L7.35 25.35ZM7.35 19.51L92.65 19.51L92.65 16.87L7.35 16.87L7.35 19.51Z" id="bafySJk9N"></path><path d="M92.65 65.9L92.65 60.61L7.35 60.61L7.35 65.9L3.75 65.9L3.75 40.56L7.35 40.56L7.35 45.74L92.65 45.74L92.65 40.56L96.25 40.56L96.25 65.9L92.65 65.9ZM7.35 57.42L92.65 57.42L92.65 54.77L7.35 54.77L7.35 57.42ZM7.35 51.58L92.65 51.58L92.65 48.93L7.35 48.93L7.35 51.58Z" id="a3gbfoDX3t"></path><path d="M5.87 77.53L93.32 77.53L93.32 89.79L5.87 89.79L5.87 77.53Z" id="b26JpCM8qG"></path><path d="M92.65 76.17L92.65 70.99L96.25 70.99L96.25 96.33L92.65 96.33L92.65 91.05L7.35 91.05L7.35 96.33L3.75 96.33L3.75 70.99L7.35 70.99L7.35 76.17L92.65 76.17ZM7.35 87.85L92.65 87.85L92.65 85.21L7.35 85.21L7.35 87.85ZM7.35 82.01L92.65 82.01L92.65 79.37L7.35 79.37L7.35 82.01Z" id="a3g2IhWZ4O"></path></defs><g><g><g><g><use xlink:href="#d82F9pASjG" opacity="1" fill="#ffffff" fill-opacity="1"></use></g><g><use xlink:href="#d19JgBem2q" opacity="1" fill="#ffffff" fill-opacity="1"></use></g><g><use xlink:href="#bafySJk9N" opacity="1" fill="#000000" fill-opacity="1"></use><g><use xlink:href="#bafySJk9N" opacity="1" fill-opacity="0" stroke="#000000" stroke-width="1" stroke-opacity="0"></use></g></g><g><use xlink:href="#a3gbfoDX3t" opacity="1" fill="#000000" fill-opacity="1"></use><g><use xlink:href="#a3gbfoDX3t" opacity="1" fill-opacity="0" stroke="#000000" stroke-width="1" stroke-opacity="0"></use></g></g><g><use xlink:href="#b26JpCM8qG" opacity="1" fill="#ffffff" fill-opacity="1"></use></g><g><use xlink:href="#a3g2IhWZ4O" opacity="1" fill="#000000" fill-opacity="1"></use><g><use xlink:href="#a3g2IhWZ4O" opacity="1" fill-opacity="0" stroke="#000000" stroke-width="1" stroke-opacity="0"></use></g></g></g></g></g></svg>