<?xml version="1.0" encoding="UTF-8" standalone="no"?>
<!DOCTYPE svg PUBLIC "-//W3C//DTD SVG 1.1//EN" "http://www.w3.org/Graphics/SVG/1.1/DTD/svg11.dtd">
<svg version="1.1" xmlns="http://www.w3.org/2000/svg" xmlns:xlink="http://www.w3.org/1999/xlink" preserveAspectRatio="xMidYMid meet" viewBox="0 0 91 91" width="91" height="91"><defs><path d="M85.76 27.67L27.99 85.44L5.88 63.33L63.65 5.56L85.76 27.67Z" id="axyQ1PDS0"></path><path d="M27.99 5.88L85.76 63.65L63.65 85.76L5.88 27.99L27.99 5.88Z" id="aEFt1KAMs"></path><path d="M71.72 45.69L91 64.8L64.84 91L45.56 71.89L26.28 91L0.11 64.8L19.39 45.69L0.11 26.86L26.55 0.93L45.56 19.76L64.56 0.93L91 26.86L71.72 45.69ZM26.28 79.81L45.56 60.7L64.84 79.81L69.52 75.17L45.56 51.42L21.59 75.17L26.28 79.81ZM30.68 45.69L11.4 64.8L16.09 69.44L39.77 45.69L16.09 22.22L11.4 26.86L30.68 45.69ZM75.03 69.44L79.71 64.8L60.43 45.69L79.71 26.86L75.03 22.22L51.34 45.69L75.03 69.44ZM26.55 12.12L21.87 16.76L45.56 40.23L69.24 16.76L64.56 12.12L45.56 30.95L26.55 12.12Z" id="dz7IrcSFl"></path></defs><g><g><g><use xlink:href="#axyQ1PDS0" opacity="1" fill="#f6f6f6" fill-opacity="1"></use></g><g><use xlink:href="#aEFt1KAMs" opacity="1" fill="#ffffff" fill-opacity="1"></use></g><g><use xlink:href="#dz7IrcSFl" opacity="1" fill="#000000" fill-opacity="1"></use><g><use xlink:href="#dz7IrcSFl" opacity="1" fill-opacity="0" stroke="#000000" stroke-width="1" stroke-opacity="0"></use></g></g></g></g></svg>